<?xml version="1.0" standalone="no"?>
<svg xmlns:xlink="http://www.w3.org/1999/xlink" id="wave" style="transform:rotate(0deg); transition: 0.3s" viewBox="0 0 1440 100" version="1.1" xmlns="http://www.w3.org/2000/svg"><defs><linearGradient id="sw-gradient-0" x1="0" x2="0" y1="1" y2="0"><stop stop-color="rgba(255, 255, 255, 1)" offset="0%"/><stop stop-color="rgba(255, 255, 255, 1)" offset="100%"/></linearGradient></defs><path style="transform:translate(0, 0px); opacity:1" fill="url(#sw-gradient-0)" d="M0,90L34.3,80C68.6,70,137,50,206,40C274.3,30,343,30,411,33.3C480,37,549,43,617,50C685.7,57,754,63,823,70C891.4,77,960,83,1029,78.3C1097.1,73,1166,57,1234,41.7C1302.9,27,1371,13,1440,21.7C1508.6,30,1577,60,1646,68.3C1714.3,77,1783,63,1851,55C1920,47,1989,43,2057,36.7C2125.7,30,2194,20,2263,28.3C2331.4,37,2400,63,2469,71.7C2537.1,80,2606,70,2674,63.3C2742.9,57,2811,53,2880,55C2948.6,57,3017,63,3086,58.3C3154.3,53,3223,37,3291,28.3C3360,20,3429,20,3497,23.3C3565.7,27,3634,33,3703,40C3771.4,47,3840,53,3909,51.7C3977.1,50,4046,40,4114,45C4182.9,50,4251,70,4320,68.3C4388.6,67,4457,43,4526,35C4594.3,27,4663,33,4731,43.3C4800,53,4869,67,4903,73.3L4937.1,80L4937.1,100L4902.9,100C4868.6,100,4800,100,4731,100C4662.9,100,4594,100,4526,100C4457.1,100,4389,100,4320,100C4251.4,100,4183,100,4114,100C4045.7,100,3977,100,3909,100C3840,100,3771,100,3703,100C3634.3,100,3566,100,3497,100C3428.6,100,3360,100,3291,100C3222.9,100,3154,100,3086,100C3017.1,100,2949,100,2880,100C2811.4,100,2743,100,2674,100C2605.7,100,2537,100,2469,100C2400,100,2331,100,2263,100C2194.3,100,2126,100,2057,100C1988.6,100,1920,100,1851,100C1782.9,100,1714,100,1646,100C1577.1,100,1509,100,1440,100C1371.4,100,1303,100,1234,100C1165.7,100,1097,100,1029,100C960,100,891,100,823,100C754.3,100,686,100,617,100C548.6,100,480,100,411,100C342.9,100,274,100,206,100C137.1,100,69,100,34,100L0,100Z"/></svg>